<svg id="Capa_1" enable-background="new 0 0 512.302 512.302" height="512" viewBox="0 0 512.302 512.302" width="512" xmlns="http://www.w3.org/2000/svg"><g><path d="m100.749 192.763 31.153-38.958h248.498l31.154 38.958-88.011 124.249-36.329-30.957-62.125-.106-36.39 31.063z" fill="#5680a6"/><path d="m323.543 317.012 88.011-124.249-22.293-27.878c-65.464 3.354-118.18 55.789-121.98 121.136l19.933.034z" fill="#497090"/><path d="m123.042 164.885-22.293 27.878 87.95 124.249 36.39-31.062 19.931.034c-3.818-65.331-56.527-117.745-121.978-121.099z" fill="#497090"/><circle cx="395.932" cy="293.585" fill="#8ac9fe" r="108.871"/><circle cx="395.781" cy="293.648" fill="#f5f8f9" r="77.656"/><path d="m318.125 293.648c0-31.073 18.251-57.883 44.617-70.297 14.821-17.537 35.087-30.323 58.189-35.752-8.027-1.886-16.397-2.885-25-2.885-60.128 0-108.871 48.743-108.871 108.871s48.743 108.871 108.871 108.871c8.603 0 16.973-.998 25-2.885-23.011-5.407-43.207-18.114-58.012-35.543-26.461-12.377-44.794-39.238-44.794-70.38z" fill="#60b7ff"/><path d="m362.742 223.351c-26.366 12.413-44.617 39.224-44.617 70.297 0 31.143 18.332 58.004 44.795 70.38-16.128-18.987-25.859-43.579-25.859-70.443 0-26.766 9.659-51.276 25.681-70.234z" fill="#d8ecfe"/><circle cx="116.371" cy="293.585" fill="#8ac9fe" r="108.871"/><circle cx="116.22" cy="293.648" fill="#f5f8f9" r="77.656"/><path d="m38.565 293.648c0-31.073 18.251-57.883 44.617-70.297 14.821-17.537 35.087-30.323 58.189-35.752-8.027-1.886-16.397-2.885-25-2.885-60.127 0-108.871 48.743-108.871 108.871s48.743 108.871 108.871 108.871c8.603 0 16.973-.998 25-2.885-23.011-5.407-43.207-18.114-58.012-35.543-26.462-12.377-44.794-39.238-44.794-70.38z" fill="#60b7ff"/><path d="m83.182 223.351c-26.367 12.413-44.617 39.224-44.617 70.297 0 31.143 18.333 58.004 44.795 70.38-16.129-18.987-25.86-43.579-25.86-70.443 0-26.766 9.66-51.276 25.682-70.234z" fill="#d8ecfe"/><circle cx="256.151" cy="153.805" fill="#8ac9fe" r="46.886"/><circle cx="256.151" cy="153.512" fill="#fee97d" r="15.531"/><g><path d="m233.12 153.512c0 12.699 10.332 23.031 23.031 23.031s23.031-10.332 23.031-23.031c0-12.7-10.332-23.031-23.031-23.031s-23.031 10.332-23.031 23.031zm23.031-8.031c4.429 0 8.031 3.603 8.031 8.031s-3.603 8.031-8.031 8.031-8.031-3.603-8.031-8.031 3.603-8.031 8.031-8.031z"/><path d="m116.221 349.588c4.143 0 7.5-3.358 7.5-7.5v-9.104c11.174-1.577 19.797-11.203 19.797-22.805 0-12.699-10.332-23.031-23.031-23.031h-8.531c-4.429 0-8.031-3.603-8.031-8.031s3.603-8.031 8.031-8.031h7.622c2.906 0 5.421 1.871 6.257 4.656 1.19 3.968 5.371 6.219 9.34 5.028 3.967-1.191 6.218-5.372 5.027-9.339-2.348-7.823-8.717-13.459-16.48-14.951v-9.27c0-4.142-3.357-7.5-7.5-7.5s-7.5 3.358-7.5 7.5v9.104c-11.174 1.577-19.797 11.203-19.797 22.805 0 12.7 10.332 23.031 23.031 23.031h8.531c4.429 0 8.031 3.603 8.031 8.031s-3.603 8.031-8.031 8.031h-9.622c-2.907 0-5.422-1.871-6.257-4.655-1.19-3.968-5.377-6.221-9.338-5.029-3.968 1.19-6.22 5.371-5.029 9.338 2.545 8.486 9.823 14.398 18.48 15.241v8.982c0 4.141 3.357 7.499 7.5 7.499z"/><path d="m193.713 302.592c-4.052-.865-8.034 1.722-8.897 5.773-6.84 32.125-35.688 55.442-68.594 55.442-38.687 0-70.16-31.474-70.16-70.16s31.474-70.16 70.16-70.16c32.841 0 61.683 23.269 68.578 55.327.871 4.05 4.863 6.626 8.909 5.755 4.05-.871 6.626-4.86 5.755-8.91-8.262-38.418-43.917-67.173-83.242-67.173-46.957 0-85.16 38.203-85.16 85.16s38.203 85.16 85.16 85.16c39.331 0 75.059-28.778 83.266-67.318.862-4.05-1.723-8.033-5.775-8.896z"/><path d="m489.125 223.883c-2.481-3.316-7.182-3.992-10.499-1.509-3.315 2.482-3.991 7.183-1.509 10.499 13.205 17.639 20.185 38.634 20.185 60.715 0 55.896-45.475 101.37-101.37 101.37s-101.37-45.475-101.37-101.37c0-54.965 46.305-101.37 101.37-101.37 20.979 0 42.53 6.976 59.482 19.289 3.351 2.433 8.04 1.69 10.476-1.661 2.435-3.352 1.69-8.042-1.661-10.476-16.315-11.85-35.081-19.132-54.901-21.393l-23.069-28.852c-1.423-1.78-3.578-2.816-5.857-2.816h-70.386c-2.75-19.55-16.088-36.494-34.912-43.49-3.884-1.445-8.199.535-9.643 4.417-1.443 3.883.535 8.2 4.418 9.643 15.35 5.704 25.662 20.545 25.662 36.93 0 21.714-17.67 39.38-39.39 39.38s-39.39-17.666-39.39-39.38c0-16.384 10.312-31.226 25.662-36.93 3.883-1.443 5.861-5.76 4.418-9.643s-5.765-5.861-9.643-4.417c-18.824 6.996-32.162 23.94-34.912 43.49h-70.386c-2.279 0-4.435 1.036-5.857 2.816l-23.073 28.857c-57.878 6.664-102.97 55.967-102.97 115.603 0 64.167 52.204 116.371 116.371 116.371s116.371-52.204 116.371-116.371c0-.041 0-.083 0-.124l46.82.083v.043c0 64.167 52.203 116.37 116.37 116.37s116.37-52.204 116.37-116.37c0-25.348-8.015-49.451-23.177-69.704zm-372.754 171.073c-55.896 0-101.371-45.475-101.371-101.371 0-54.943 46.528-101.371 101.371-101.371 55.013 0 101.371 46.435 101.371 101.371 0 55.896-45.474 101.371-101.371 101.371zm115.392-116.497c-7.171-55.01-52.91-98.072-109.108-101.077l12.853-16.075h66.77c3.665 26.449 26.428 46.88 53.874 46.88s50.209-20.431 53.874-46.88h66.77l12.855 16.078c-56.227 3.005-101.985 46.109-109.12 101.16z"/><path d="m400.046 287.148h-8.53c-4.429 0-8.031-3.603-8.031-8.031s3.603-8.031 8.031-8.031h7.621c2.907 0 5.422 1.871 6.257 4.655 1.19 3.968 5.371 6.221 9.339 5.029 3.967-1.19 6.219-5.371 5.028-9.338-2.347-7.824-8.716-13.46-16.48-14.952v-9.27c0-4.142-3.357-7.5-7.5-7.5s-7.5 3.358-7.5 7.5v9.104c-11.173 1.578-19.796 11.203-19.796 22.805 0 12.7 10.332 23.031 23.031 23.031h8.53c4.429 0 8.031 3.603 8.031 8.031s-3.603 8.031-8.031 8.031h-9.621c-2.907 0-5.422-1.871-6.257-4.655-1.19-3.968-5.377-6.221-9.338-5.029-3.968 1.19-6.22 5.371-5.029 9.338 2.545 8.486 9.822 14.398 18.479 15.241v8.982c0 4.142 3.357 7.5 7.5 7.5s7.5-3.358 7.5-7.5v-9.104c11.174-1.577 19.797-11.203 19.797-22.805 0-12.701-10.332-23.032-23.031-23.032z"/><path d="m395.78 208.492c-46.955 0-85.155 38.201-85.155 85.156s38.2 85.155 85.155 85.155 85.156-38.201 85.156-85.155c.001-46.955-38.201-85.156-85.156-85.156zm0 155.311c-38.684 0-70.155-31.472-70.155-70.155 0-38.684 31.472-70.156 70.155-70.156 38.685 0 70.156 31.472 70.156 70.156.001 38.683-31.471 70.155-70.156 70.155z"/></g></g></svg>