<svg id="Capa_1" enable-background="new 0 0 512 512" height="512" viewBox="0 0 512 512" width="512" xmlns="http://www.w3.org/2000/svg"><g><path d="m473.498 457.907h-434.996c-17.121 0-31-13.879-31-31v-310.747c0-17.121 13.879-31 31-31h434.996c17.121 0 31 13.879 31 31v310.747c0 17.12-13.879 31-31 31z" fill="#f5f8f9"/><path d="m473.498 85.16h-434.996c-17.121 0-31 13.879-31 31v31.124h496.996v-31.124c0-17.121-13.879-31-31-31z" fill="#f07281"/><path d="m7.502 147.284v279.623c0 17.121 13.879 31 31 31h30c-17.121 0-31-13.879-31-31v-279.623z" fill="#d8ecfe"/><path d="m37.502 116.16c0-17.121 13.879-31 31-31h-30c-17.121 0-31 13.879-31 31v31.124h30z" fill="#eb5569"/><g fill="#5680a6"><path d="m116.22 116.068c-8.578 0-15.531-6.954-15.531-15.531v-30.909c0-8.578 6.954-15.531 15.531-15.531 8.578 0 15.531 6.954 15.531 15.531v30.909c0 8.578-6.954 15.531-15.531 15.531z"/><path d="m209.407 116.068c-8.578 0-15.531-6.954-15.531-15.531v-30.909c0-8.578 6.954-15.531 15.531-15.531 8.578 0 15.531 6.954 15.531 15.531v30.909c0 8.578-6.954 15.531-15.531 15.531z"/><path d="m302.593 116.068c-8.578 0-15.531-6.954-15.531-15.531v-30.909c0-8.578 6.954-15.531 15.531-15.531 8.578 0 15.531 6.954 15.531 15.531v30.909c.001 8.578-6.953 15.531-15.531 15.531z"/><path d="m395.78 116.068c-8.578 0-15.531-6.954-15.531-15.531v-30.909c0-8.578 6.954-15.531 15.531-15.531 8.578 0 15.531 6.954 15.531 15.531v30.909c0 8.578-6.953 15.531-15.531 15.531z"/></g><g fill="#497090"><path d="m115.689 100.537v-30.909c0-5.858 3.243-10.958 8.031-13.603-2.224-1.229-4.78-1.928-7.5-1.928-8.578 0-15.531 6.953-15.531 15.531v30.909c0 8.578 6.953 15.531 15.531 15.531 2.72 0 5.276-.699 7.5-1.928-4.788-2.645-8.031-7.745-8.031-13.603z"/><path d="m208.875 100.537v-30.909c0-5.858 3.243-10.958 8.031-13.603-2.224-1.229-4.78-1.928-7.5-1.928-8.578 0-15.531 6.953-15.531 15.531v30.909c0 8.578 6.953 15.531 15.531 15.531 2.72 0 5.276-.699 7.5-1.928-4.788-2.645-8.031-7.745-8.031-13.603z"/><path d="m302.062 100.537v-30.909c0-5.858 3.243-10.958 8.031-13.603-2.223-1.229-4.78-1.928-7.5-1.928-8.578 0-15.531 6.953-15.531 15.531v30.909c0 8.578 6.953 15.531 15.531 15.531 2.72 0 5.277-.699 7.5-1.928-4.788-2.645-8.031-7.745-8.031-13.603z"/><path d="m395.249 100.537v-30.909c0-5.858 3.243-10.958 8.031-13.603-2.224-1.229-4.78-1.928-7.5-1.928-8.578 0-15.531 6.953-15.531 15.531v30.909c0 8.578 6.954 15.531 15.531 15.531 2.72 0 5.276-.699 7.5-1.928-4.788-2.645-8.031-7.745-8.031-13.603z"/></g><path d="m147.282 302.595h31.062v93.187h-31.062z" fill="#fee97d"/><path d="m147.282 302.595h15v93.187h-15z" fill="#fee45a"/><path d="m209.407 271.533h31.062v124.249h-31.062z" fill="#fece85"/><path d="m209.407 271.533h15v124.249h-15z" fill="#fec165"/><path d="m271.531 240.53h31.062v155.252h-31.062z" fill="#ade194"/><path d="m271.531 240.53h15v155.252h-15z" fill="#97da7b"/><path d="m333.656 209.409h31.062v186.374h-31.062z" fill="#8ac9fe"/><path d="m333.656 209.409h15v186.374h-15z" fill="#60b7ff"/><g><path d="m504.5 221.102c-4.143 0-7.5 3.357-7.5 7.5v198.301c0 12.958-10.542 23.5-23.5 23.5h-123.5c-4.143 0-7.5 3.357-7.5 7.5s3.357 7.5 7.5 7.5h123.5c21.229 0 38.5-17.271 38.5-38.5v-198.301c0-4.143-3.357-7.5-7.5-7.5z"/><path d="m473.5 77.662h-54.688v-8.034c0-12.699-10.332-23.03-23.031-23.03s-23.031 10.331-23.031 23.03v8.034h-47.125v-8.034c0-12.699-10.331-23.03-23.03-23.03s-23.031 10.331-23.031 23.03v8.034h-47.125v-8.034c0-12.699-10.332-23.03-23.031-23.03s-23.03 10.331-23.03 23.03v8.034h-47.125v-8.034c0-12.699-10.332-23.03-23.031-23.03s-23.031 10.331-23.031 23.03v8.034h-54.691c-21.229 0-38.5 17.271-38.5 38.5v310.74c0 21.229 17.271 38.5 38.5 38.5h278.81c4.143 0 7.5-3.357 7.5-7.5s-3.357-7.5-7.5-7.5h-278.81c-12.958 0-23.5-10.542-23.5-23.5v-272.12h178.06c4.143 0 7.5-3.357 7.5-7.5s-3.357-7.5-7.5-7.5h-178.06v-23.62c0-12.958 10.542-23.5 23.5-23.5h54.688v7.875c0 12.699 10.332 23.031 23.031 23.031s23.031-10.332 23.031-23.031v-7.875h47.125v7.875c0 12.699 10.331 23.031 23.03 23.031s23.031-10.332 23.031-23.031v-7.875h47.125v7.875c0 12.699 10.332 23.031 23.031 23.031s23.03-10.332 23.03-23.031v-7.875h47.125v7.875c0 12.699 10.332 23.031 23.031 23.031s23.031-10.332 23.031-23.031v-7.875h54.691c12.958 0 23.5 10.542 23.5 23.5v23.62h-271.25c-4.143 0-7.5 3.357-7.5 7.5s3.357 7.5 7.5 7.5h271.25v41.13c0 4.143 3.357 7.5 7.5 7.5s7.5-3.357 7.5-7.5v-79.75c0-21.228-17.271-38.5-38.5-38.5zm-357.28 30.906c-4.429 0-8.031-3.603-8.031-8.031v-30.909c0-4.428 3.603-8.03 8.031-8.03s8.031 3.603 8.031 8.03v30.909c0 4.429-3.603 8.031-8.031 8.031zm101.218-8.031c0 4.429-3.603 8.031-8.031 8.031s-8.03-3.603-8.03-8.031v-30.909c0-4.428 3.603-8.03 8.03-8.03 4.429 0 8.031 3.603 8.031 8.03zm85.156 8.031c-4.429 0-8.031-3.603-8.031-8.031v-30.909c0-4.428 3.603-8.03 8.031-8.03s8.03 3.603 8.03 8.03v30.909c0 4.429-3.603 8.031-8.03 8.031zm93.186 0c-4.429 0-8.031-3.603-8.031-8.031v-30.909c0-4.428 3.603-8.03 8.031-8.03s8.031 3.603 8.031 8.03v30.909c.001 4.429-3.602 8.031-8.031 8.031z"/><path d="m85.157 201.908c-4.143 0-7.5 3.357-7.5 7.5v186.374c0 4.143 3.357 7.5 7.5 7.5h341.686c4.143 0 7.5-3.357 7.5-7.5s-3.357-7.5-7.5-7.5h-54.625v-178.874c0-4.143-3.357-7.5-7.5-7.5h-31.062c-4.143 0-7.5 3.357-7.5 7.5v178.874h-16.062v-147.753c0-4.143-3.357-7.5-7.5-7.5h-31.062c-4.143 0-7.5 3.357-7.5 7.5v147.753h-16.062v-116.749c0-4.143-3.357-7.5-7.5-7.5h-31.062c-4.143 0-7.5 3.357-7.5 7.5v116.749h-16.062v-85.687c0-4.143-3.357-7.5-7.5-7.5h-31.062c-4.143 0-7.5 3.357-7.5 7.5v85.687h-47.127v-178.874c0-4.142-3.357-7.5-7.5-7.5zm255.998 15h16.062v171.374h-16.062zm-62.124 31.121h16.062v140.253h-16.062zm-62.125 31.004h16.062v109.249h-16.062zm-62.124 31.063h16.062v78.187h-16.062z"/></g></g></svg>