<svg id="Capa_1" enable-background="new 0 0 511.91 511.91" height="512" viewBox="0 0 511.91 511.91" width="512" xmlns="http://www.w3.org/2000/svg"><g><path d="m55.249 139.356h401.416v232.967h-401.416z" fill="#ade194"/><path d="m395.737 341.261h-279.56c0-17.155-13.907-31.062-31.062-31.062v-108.718l.857-.023c16.813-.458 30.205-14.219 30.205-31.039h279.56c0 16.688 13.528 30.217 30.217 30.217h.846v109.563c-17.156 0-31.063 13.907-31.063 31.062z" fill="#97da7b"/><path d="m85.115 310.199v-108.718l.857-.023c7.36-.2 14.065-2.95 19.278-7.39v-54.711h-50v232.967h50v-54.716c-5.423-4.62-12.453-7.409-20.135-7.409z" fill="#97da7b"/><path d="m85.971 201.458-.857.023v108.718c7.682 0 14.712 2.789 20.134 7.409v-123.54c-5.212 4.439-11.916 7.189-19.277 7.39z" fill="#80d261"/><ellipse cx="255.957" cy="255.84" fill="#fee97d" rx="62.124" ry="85.421"/><path d="m213.833 255.84c0-42.496 22.569-77.744 52.124-84.32-3.255-.724-6.596-1.101-10-1.101-34.31 0-62.124 38.244-62.124 85.421s27.814 85.421 62.124 85.421c3.404 0 6.745-.377 10-1.101-29.556-6.577-52.124-41.824-52.124-84.32z" fill="#fee45a"/><circle cx="131.708" cy="255.84" fill="#fee97d" r="15.531"/><circle cx="380.206" cy="255.84" fill="#fee97d" r="15.531"/><path d="m454.307 85.669c-5.524-6.648-15.391-7.559-22.039-2.034l-36.59 30.407v-44.557c0-34.163-27.685-61.864-61.848-61.883l-186.863-.102c-34.187-.018-61.912 27.691-61.912 61.878v69.978h31.062v-69.583c0-17.17 13.919-31.089 31.089-31.089h187.348c16.602 0 30.061 13.459 30.061 30.061v45.297l-36.591-30.407c-2.923-2.429-6.469-3.614-9.994-3.614-4.492 0-8.95 1.923-12.045 5.648-5.524 6.647-4.613 16.515 2.034 22.039l62.125 51.626c5.798 4.819 14.207 4.818 20.005 0l62.124-51.626c6.648-5.524 7.558-15.392 2.034-22.039z" fill="#f07281"/><path d="m57.607 426.237c5.524 6.648 15.391 7.559 22.039 2.034l36.59-30.407v44.558c0 34.163 27.685 61.864 61.848 61.883l186.083.1c34.618.019 62.692-28.04 62.692-62.658v-69.424h-31.062v69.363c0 17.417-14.119 31.535-31.536 31.535h-186.901c-16.602 0-30.061-13.459-30.061-30.061v-45.297l36.591 30.407c2.923 2.429 6.469 3.614 9.994 3.614 4.492 0 8.95-1.923 12.045-5.648 5.524-6.647 4.613-16.515-2.034-22.039l-62.125-51.626c-5.798-4.819-14.207-4.818-20.005 0l-62.124 51.626c-6.648 5.526-7.558 15.393-2.034 22.04z" fill="#8ac9fe"/><g><path d="m456.667 131.86h-21.721l22.131-18.387c9.799-8.161 11.145-22.783 3.001-32.593-3.951-4.759-9.519-7.693-15.68-8.261-6.157-.568-12.171 1.299-16.925 5.252l-24.297 20.187v-28.578c0-38.234-31.108-69.358-69.346-69.38l-186.858-.1c-37.654.054-69.415 31.569-69.415 69.38v62.48h-22.31c-4.143 0-7.5 3.358-7.5 7.5v232.96c0 4.142 3.357 7.5 7.5 7.5h21.993l-22.398 18.613c-9.809 8.155-11.157 22.778-3.006 32.597 10.037 10.012 20.906 11.014 32.605 3.008l24.296-20.193v28.575c0 38.239 31.108 69.368 69.346 69.39l186.082.1c38.072-.066 70.192-31.923 70.192-70.16v-61.93h22.31c4.143 0 7.5-3.358 7.5-7.5v-100.11c0-4.142-3.357-7.5-7.5-7.5s-7.5 3.358-7.5 7.5v92.61h-280.924l-19.324-16.059h246.819c4.143 0 7.5-3.358 7.5-7.5 0-12.992 10.57-23.562 23.562-23.562 4.143 0 7.5-3.358 7.5-7.5v-109.564c0-4.78-4.277-7.242-8.346-7.5-12.526 0-22.717-10.191-22.717-22.717 0-3.587-2.518-6.586-5.884-7.325l19.539-16.234h32.274v92.66c0 4.142 3.357 7.5 7.5 7.5s7.5-3.358 7.5-7.5v-100.159c.001-4.142-3.356-7.5-7.499-7.5zm-364.11-62.48c0-30.739 25.48-52.256 54.406-54.38l186.859.1c29.972.018 54.354 24.413 54.354 54.38v44.56c1.654 7.13 5.752 9.053 12.293 5.769l36.592-30.402c4.117-2.82 7.942-2.469 11.475 1.054 2.87 3.457 2.395 8.61-1.052 11.481l-62.13 51.62c-3.019 2.508-7.397 2.506-10.414 0l-62.124-51.614c-3.456-2.879-3.934-8.03-1.054-11.493 3.681-3.526 7.504-3.874 11.472-1.046l36.59 30.4c6.541 3.284 10.639 1.361 12.293-5.769v-45.29c0-20.716-16.85-37.57-37.561-37.57h-90.109c-4.143 0-7.5 3.358-7.5 7.5s3.357 7.5 7.5 7.5h90.109c12.439 0 22.561 10.125 22.561 22.57v29.308l-24.303-20.192c-11.279-8.019-22.144-7.016-32.594 3.009-8.155 9.806-6.812 24.43 3.003 32.604l22.124 18.381h-201.73v-62.09c0-13.008 10.582-23.59 23.59-23.59h64.55c4.143 0 7.5-3.358 7.5-7.5s-3.357-7.5-7.5-7.5h-64.55c-21.278 0-38.59 17.312-38.59 38.59v62.09h-16.06zm-29.81 295.44v-217.96h280.655l19.328 16.059h-246.553c-4.143 0-7.5 3.358-7.5 7.5 0 12.852-10.062 23.192-22.91 23.542-3.858-.094-6.575 2.413-8.152 7.521v108.718c0 4.142 3.357 7.5 7.5 7.5 12.992 0 23.562 10.57 23.562 23.562 0 3.663 2.625 6.712 6.097 7.368l-19.483 16.19zm247.834-108.98c0 42.966-24.504 77.921-54.624 77.921s-54.624-34.956-54.624-77.921 24.504-77.921 54.624-77.921 54.624 34.955 54.624 77.921zm77.716 123.98v61.87c0 13.25-10.784 24.03-24.04 24.03h-62.18c-4.143 0-7.5 3.358-7.5 7.5s3.357 7.5 7.5 7.5h62.18c21.526 0 39.04-17.509 39.04-39.03v-61.87h16.061v61.93c0 31.18-25.85 52.996-55.187 55.16l-186.079-.1c-29.972-.018-54.354-24.417-54.354-54.39v-44.56c.47-7.27-6.03-10.52-12.294-5.768l-36.591 30.411c-4.117 2.82-7.942 2.469-11.475-1.054-2.872-3.46-2.4-8.611 1.052-11.481l62.13-51.629c3.018-2.508 7.396-2.506 10.414 0l62.129 51.628c3.522 3.535 3.874 7.362 1.055 11.481-3.681 3.532-7.506 3.884-11.477 1.054l-36.59-30.41c-6.134-4.752-12.384-1.502-12.294 5.768v45.3c0 20.71 16.85 37.56 37.561 37.56h92.029c4.143 0 7.5-3.358 7.5-7.5s-3.357-7.5-7.5-7.5h-92.029c-12.439 0-22.561-10.121-22.561-22.56v-29.314l24.303 20.199c11.279 8.019 22.144 7.016 32.594-3.009 8.003-11.698 7.002-22.566-3.003-32.604l-22.397-18.612zm-265.353-46.059c-3.02-15.259-15.071-27.311-30.33-30.331v-95.179c15.421-2.986 27.374-14.985 30.348-30.333h94.893c-21.904 19.116-31.521 49.58-31.521 77.921s9.618 58.805 31.521 77.921h-94.911zm296.356-126.214v95.883c-15.259 3.02-27.311 15.072-30.33 30.331h-94.91c21.904-19.116 31.521-49.58 31.521-77.921s-9.618-58.805-31.521-77.921h94.927c3.052 15.073 15.12 26.914 30.313 29.628z"/><path d="m131.708 232.809c-12.699 0-23.031 10.332-23.031 23.031s10.332 23.031 23.031 23.031 23.031-10.332 23.031-23.031-10.332-23.031-23.031-23.031zm0 31.062c-4.429 0-8.031-3.603-8.031-8.031s3.603-8.031 8.031-8.031c4.429 0 8.031 3.603 8.031 8.031s-3.602 8.031-8.031 8.031z"/><path d="m357.175 255.84c0 12.7 10.332 23.031 23.031 23.031s23.031-10.332 23.031-23.031-10.332-23.031-23.031-23.031-23.031 10.331-23.031 23.031zm31.062 0c0 4.428-3.603 8.031-8.031 8.031s-8.031-3.603-8.031-8.031 3.603-8.031 8.031-8.031 8.031 3.603 8.031 8.031z"/><path d="m251.691 263.34h8.531c4.429 0 8.031 3.603 8.031 8.031s-3.603 8.031-8.031 8.031h-9.622c-2.907 0-5.422-1.871-6.257-4.655-1.19-3.968-5.377-6.219-9.338-5.029-3.968 1.19-6.22 5.371-5.029 9.338 2.545 8.486 9.823 14.398 18.48 15.241v8.981c0 4.142 3.357 7.5 7.5 7.5s7.5-3.358 7.5-7.5v-9.104c11.174-1.577 19.797-11.203 19.797-22.805 0-12.7-10.332-23.031-23.031-23.031h-8.531c-4.429 0-8.031-3.603-8.031-8.031s3.603-8.031 8.031-8.031h7.622c2.907 0 5.421 1.871 6.257 4.656 1.19 3.968 5.379 6.219 9.339 5.028 3.968-1.191 6.219-5.372 5.028-9.339-2.348-7.823-8.717-13.459-16.48-14.951v-9.27c0-4.142-3.357-7.5-7.5-7.5s-7.5 3.358-7.5 7.5v9.104c-11.174 1.577-19.797 11.203-19.797 22.805 0 12.699 10.332 23.031 23.031 23.031z"/></g></g></svg>